<?xml version="1.0" encoding="UTF-8"?>
<svg version="1.1" xmlns="http://www.w3.org/2000/svg" width="512" height="512">
<path d="M0 0 C8.71819147 6.15478293 14.44627634 13.69043644 16.6875 24.234375 C18.0342998 35.9627566 15.49391131 45.09300714 8.23828125 54.3515625 C5.32676965 57.79659716 2.33971676 61.15757156 -0.71875 64.47265625 C-3.05407426 67.05990762 -5.25103722 69.72366855 -7.4375 72.4375 C-11.29708603 77.20996203 -15.37199991 81.73109109 -19.52734375 86.24609375 C-22.74709519 89.83207284 -25.75905176 93.56701492 -28.78515625 97.31640625 C-30.95632827 99.94708557 -33.20241357 102.47942424 -35.5 105 C-38.61458668 108.41739372 -41.5918662 111.9052235 -44.5 115.5 C-48.11149134 119.96420457 -51.88660694 124.23002114 -55.75390625 128.47265625 C-58.06187598 131.06962393 -60.25555863 133.73404013 -62.4375 136.4375 C-66.29708603 141.20996203 -70.37199991 145.73109109 -74.52734375 150.24609375 C-77.74394094 153.82855982 -80.75284978 157.56007592 -83.77734375 161.3046875 C-86.70681924 164.85712702 -89.77946958 168.26311182 -92.88671875 171.66015625 C-94.79532718 173.77338444 -96.61621895 175.93690356 -98.4375 178.125 C-112.31677361 193.95056255 -133.36620506 202.48876055 -154.07266283 204.16809726 C-159.09477997 204.42406304 -164.11601547 204.39549606 -169.14306641 204.36889648 C-170.79084522 204.3713722 -172.43862245 204.37521835 -174.08639526 204.38031006 C-177.59805231 204.38856642 -181.10954671 204.38791146 -184.62120438 204.38012505 C-190.17742518 204.36843162 -195.73344144 204.38079251 -201.28964233 204.39674377 C-215.07382022 204.43273622 -228.85799122 204.43916178 -242.64221191 204.43664551 C-253.39109971 204.43493386 -264.13981775 204.44203069 -274.88865793 204.47662407 C-280.40999012 204.49339515 -285.93090695 204.49164591 -291.45223737 204.47580135 C-294.88110435 204.47000559 -298.30977395 204.48074024 -301.7386055 204.49604797 C-303.32607936 204.49977338 -304.9135864 204.49666845 -306.50102997 204.48617744 C-308.67058819 204.47279468 -310.83870844 204.48402316 -313.00820923 204.50120544 C-314.22078714 204.50099616 -315.43336506 204.50078688 -316.68268776 204.50057125 C-322.45801113 205.37005905 -326.21753393 208.95279945 -330.1640625 213.0390625 C-330.89367187 213.78414062 -331.62328125 214.52921875 -332.375 215.296875 C-333.48875 216.44929688 -333.48875 216.44929688 -334.625 217.625 C-336.11239186 219.16350498 -337.60440923 220.6975549 -339.1015625 222.2265625 C-339.75463379 222.90283691 -340.40770508 223.57911133 -341.08056641 224.27587891 C-344.94106447 227.74355091 -348.48576653 228.63301833 -353.58203125 228.5 C-358.33373263 227.51741878 -361.47114816 224.15369151 -365 221 C-366.661556 219.63956742 -368.32855547 218.28576493 -370 216.9375 C-372.00127793 215.29319158 -374.00123967 213.64736164 -376 212 C-377.3645555 210.87626828 -378.72914078 209.75257273 -380.09375 208.62890625 C-382.30503835 206.80784526 -384.51621024 204.9866437 -386.72705078 203.16503906 C-392.47412834 198.43034021 -398.23338047 193.71088457 -404 189 C-405.83345036 187.50014304 -407.66678171 186.0001406 -409.5 184.5 C-410.86125 183.38625 -410.86125 183.38625 -412.25 182.25 C-420.5 175.5 -420.5 175.5 -423.2734375 173.23046875 C-425.02817784 171.79500065 -426.78335155 170.36006204 -428.5390625 168.92578125 C-434.94431222 163.69127959 -441.33324009 158.43723238 -447.71435547 153.17333984 C-450.92025724 150.52992746 -454.12810286 147.88971511 -457.359375 145.27734375 C-458.79023438 144.11912109 -458.79023438 144.11912109 -460.25 142.9375 C-461.05953125 142.28652344 -461.8690625 141.63554687 -462.703125 140.96484375 C-470.59228211 134.21612602 -470.59228211 134.21612602 -471 130.0625 C-471.0825 129.43472656 -471.165 128.80695313 -471.25 128.16015625 C-470.5884699 122.44412275 -466.88900189 118.51990782 -462.95703125 114.62890625 C-462.46974045 114.14348862 -461.98244965 113.65807098 -461.48039246 113.15794373 C-460.4525921 112.13682998 -459.42121791 111.1193021 -458.38647461 110.10522461 C-456.82739644 108.57710069 -455.27904847 107.03876185 -453.73242188 105.49804688 C-449.63333571 101.43630333 -445.53512001 97.44081193 -441.16064453 93.67602539 C-436.79516104 89.88341599 -432.75951736 85.81657637 -428.72265625 81.6796875 C-427.14044104 80.07506014 -425.5577427 78.47090905 -423.97460938 76.8671875 C-421.52850018 74.38430753 -419.08555905 71.89862636 -416.65112305 69.40429688 C-388.53389103 40.63077639 -355.23747474 18.78253341 -313.7265625 17.796875 C-293.84156694 17.57732899 -276.76349132 19.55222424 -258 26 C-255.30019486 26.89993505 -253.7548223 27.12637766 -250.98606873 27.13130188 C-250.17180923 27.13531006 -249.35754974 27.13931824 -248.51861572 27.14344788 C-247.62873962 27.14291916 -246.73886353 27.14239044 -245.82202148 27.1418457 C-244.41168388 27.14705734 -244.41168388 27.14705734 -242.97285461 27.15237427 C-240.92832977 27.15973152 -238.88379694 27.16507707 -236.83926201 27.16866493 C-233.59753334 27.17583335 -230.35595578 27.1915047 -227.11427307 27.21000671 C-217.89610925 27.26244531 -208.67802643 27.31041169 -199.4597168 27.32592773 C-193.82156658 27.33604002 -188.18379415 27.36545111 -182.54579353 27.40724754 C-180.40215991 27.41952033 -178.25847281 27.42468564 -176.11480522 27.42244911 C-173.10404427 27.42008181 -170.09435566 27.44237272 -167.08374023 27.4699707 C-166.20803375 27.46336929 -165.33232727 27.45676788 -164.43008423 27.44996643 C-154.20209559 27.60286722 -146.53067142 31.51028006 -139.203125 38.4921875 C-132.56883331 46.04398762 -130.6478891 54.27180727 -130.79296875 64.09765625 C-131.49921994 73.99849843 -135.73163775 81.08572319 -142.91796875 87.7890625 C-152.17880562 95.29385246 -162.04392087 95.43222309 -173.42922211 95.41069031 C-176.02754388 95.40617498 -178.62519799 95.42031332 -181.22344971 95.43908691 C-187.66889177 95.48189332 -194.11431616 95.49312934 -200.55987549 95.50531006 C-206.02462364 95.51684483 -211.48906292 95.54040372 -216.95368195 95.58000183 C-219.50911016 95.59354978 -222.06411799 95.58940732 -224.61956787 95.58459473 C-226.18746475 95.59393483 -227.75535699 95.60410352 -229.32324219 95.61523438 C-230.02983475 95.60908615 -230.73642731 95.60293793 -231.46443176 95.59660339 C-235.81239505 95.65075721 -238.55025624 96.32496894 -242 99 C-244.4915904 102.7373856 -244.45793285 104.57331583 -244 109 C-242.20437595 111.75329021 -240.94745078 113.52627461 -238 115 C-235.31752238 115.11401292 -232.66041364 115.16783933 -229.97705078 115.17700195 C-228.73268501 115.18685875 -228.73268501 115.18685875 -227.46318054 115.19691467 C-224.70722362 115.21668169 -221.95132152 115.22832336 -219.1953125 115.23828125 C-217.78078104 115.24439454 -217.78078104 115.24439454 -216.33767319 115.25063133 C-211.33774788 115.27151548 -206.33785014 115.28580196 -201.33789062 115.29516602 C-196.19577168 115.3061813 -191.05409136 115.34051757 -185.91212654 115.38033772 C-181.94157159 115.40662128 -177.97111874 115.41486866 -174.00048447 115.41844749 C-172.10685163 115.42329025 -170.21322265 115.43483752 -168.31967545 115.45348549 C-154.46736748 115.58132599 -141.58959791 115.07902801 -131 105 C-123.99303266 97.96250633 -117.51210697 90.52888963 -111.30859375 82.77734375 C-108.64720542 79.57557201 -105.84537754 76.53765082 -103 73.5 C-99.35111551 69.60423719 -95.84301562 65.66665716 -92.5 61.5 C-88.6794151 56.73811158 -84.60932197 52.28564406 -80.43920898 47.83374023 C-77.34219916 44.508452 -74.40378316 41.11280061 -71.5625 37.5625 C-67.53958607 32.54663454 -63.21935864 27.88202509 -58.81030273 23.20922852 C-55.4118795 19.5861409 -52.219246 15.88628849 -49.125 12 C-37.46756216 -2.46031907 -17.28969904 -10.81338805 0 0 Z " fill="#000000" transform="translate(483,144)"/>
</svg>
