<?xml version="1.0" encoding="UTF-8"?>
<svg version="1.1" xmlns="http://www.w3.org/2000/svg" width="512" height="512">
<path d="M0 0 C7.01592121 3.74623718 11.56637953 10.06393744 14 17.5 C14.94313588 22.80614237 15.13996746 27.91075393 15.12025452 33.27622986 C15.12153615 34.56539498 15.12153615 34.56539498 15.12284368 35.88060385 C15.12448475 38.74716562 15.11899967 41.61366827 15.11352539 44.48022461 C15.1132432 46.54034422 15.11340188 48.60046394 15.1139679 50.6605835 C15.11425461 56.24471046 15.10837815 61.82881591 15.10139394 67.41293788 C15.09513952 73.25189908 15.09455495 79.09086079 15.09336853 84.92982483 C15.09026138 95.98291986 15.08205628 107.03600498 15.07201904 118.08909565 C15.06083879 130.6742651 15.05534263 143.25943501 15.05032361 155.84460819 C15.03987317 181.72974446 15.02208402 207.61487126 15 233.5 C22.26 233.5 29.52 233.5 37 233.5 C36.99000725 230.5962709 36.99000725 230.5962709 36.97981262 227.63388062 C36.91890921 209.36080525 36.87380243 191.08775053 36.84456348 172.81459618 C36.82913137 163.42095218 36.80811221 154.02738423 36.77368164 144.63378906 C36.74366686 136.44099645 36.72439847 128.24825896 36.71773452 120.05541289 C36.71384261 115.72219936 36.70477339 111.38914342 36.68280983 107.05598068 C36.66225325 102.9667739 36.65620437 98.87778772 36.66067696 94.78853416 C36.65986024 93.2979493 36.65400978 91.80735607 36.64238358 90.31681633 C36.53598587 75.95612322 37.47046558 62.5901611 47.6640625 51.7265625 C54.92690971 44.92800689 62.45498681 43.80461336 72.16796875 44.02734375 C79.97790545 44.99064889 86.62453243 48.22873195 91.5625 54.4375 C96.88933726 62.66276342 98.15397885 70.53195636 98.12457275 80.17375183 C98.1259829 81.03430768 98.12739305 81.89486353 98.12884593 82.78149682 C98.1324888 85.65797734 98.12916684 88.53440825 98.12597656 91.41088867 C98.1273718 93.47584573 98.12927142 95.5408025 98.13163757 97.60575867 C98.13612942 102.0484509 98.13799054 106.49113391 98.13809967 110.93382835 C98.13924029 117.9543886 98.15207898 124.97489631 98.16766357 131.99543762 C98.17023643 133.18025056 98.17280928 134.36506349 98.1754601 135.58577985 C98.1807263 138.00807385 98.18601178 140.43036781 98.19131613 142.85266173 C98.22644402 159.19564682 98.25297196 175.5385658 98.25048828 191.8815918 C98.24890247 202.90941896 98.26486595 213.93706644 98.30119491 224.96483594 C98.31969462 230.80166886 98.32896228 236.63820158 98.31671906 242.4750576 C98.30532653 247.95895344 98.3168821 253.44231023 98.34635353 258.92613411 C98.35302164 260.94217833 98.3510806 262.95827147 98.34005547 264.97429657 C98.32628504 267.71925101 98.34295836 270.46235971 98.36749268 273.2071991 C98.3561373 274.011467 98.34478192 274.8157349 98.33308244 275.64437455 C98.31951194 278.11696219 98.31951194 278.11696219 99 281.5 C101.2461034 283.66918678 101.2461034 283.66918678 104 284.5 C108.76641914 283.61057251 111.60676193 280.21049876 114.8125 276.8125 C117.96641009 273.51542176 121.13670136 270.34153907 124.61450195 267.38330078 C129.43703837 263.18621348 133.91094694 258.67866138 138.3984375 254.12890625 C140.19517417 252.31952408 141.99205358 250.51028365 143.7890625 248.70117188 C146.58402577 245.88143752 149.37735178 243.06012006 152.16796875 240.23608398 C154.88611284 237.48750934 157.61063179 234.74537757 160.3359375 232.00390625 C161.15605316 231.17033096 161.97616882 230.33675568 162.82113647 229.47792053 C173.63332406 218.6197391 183.13263391 210.26438078 199.0625 209.9375 C207.13670424 210.02829578 212.93039451 211.94991862 219.01953125 217.26171875 C225.627112 224.11969203 228.19130507 231.43972588 228.625 240.875 C228.2453144 252.33460166 222.9446881 259.82135507 215.5859375 268.16601562 C209.4892163 275.09557805 204.19193864 282.60795397 198.77636719 290.07226562 C197.09341487 292.3723313 195.3854158 294.65046137 193.6640625 296.921875 C183.05553843 310.97331202 173.52227339 325.7035637 164 340.5 C162.93531494 342.15370605 162.93531494 342.15370605 161.84912109 343.84082031 C157.87204961 350.02695619 153.91263371 356.22421184 149.96044922 362.42626953 C147.28066249 366.62782805 144.5922864 370.82386235 141.90405273 375.02001953 C131.80981925 390.77776051 121.74943902 406.55691496 111.75 422.375 C111.25943115 423.14956543 110.7688623 423.92413086 110.26342773 424.72216797 C107.92896839 428.41483684 105.61559907 432.11762008 103.34765625 435.8515625 C98.42721054 443.92811329 93.2821256 451.38934698 87 458.5 C86.57605957 458.98952148 86.15211914 459.47904297 85.71533203 459.98339844 C79.38227265 467.28134118 72.75433384 473.67893843 65 479.5 C64.03835938 480.22703125 63.07671875 480.9540625 62.0859375 481.703125 C37.11100042 499.786244 6.83372765 510.47739906 -24.078125 510.73828125 C-25.03468491 510.7480751 -25.99124481 510.75786896 -26.97679138 510.76795959 C-69.99927071 511.11750242 -114.77122919 507.99571257 -147.26171875 476.296875 C-179.52502801 443.34319536 -186.69126634 395.71399878 -186.50170898 351.43505859 C-186.50550518 348.85457568 -186.51101581 346.27409481 -186.51808167 343.69361877 C-186.53181967 337.49186814 -186.5246092 331.2903248 -186.50940608 325.08858453 C-186.49233985 317.84545155 -186.49578096 310.60236725 -186.49950016 303.35922034 C-186.50534102 290.43670444 -186.49134674 277.51428687 -186.46655273 264.59179688 C-186.4425531 252.08166843 -186.43558809 239.57167079 -186.44604492 227.06152344 C-186.45746417 213.37578357 -186.45937867 199.69010375 -186.44494683 186.00436461 C-186.44342119 184.54505071 -186.44190083 183.0857368 -186.44038582 181.62642288 C-186.439628 180.90869296 -186.43887019 180.19096303 -186.43808941 179.45148372 C-186.43336139 174.41192538 -186.4351868 169.37239406 -186.43945122 164.33283615 C-186.44490178 157.55768951 -186.43410153 150.78275003 -186.41249657 144.00762749 C-186.40693837 141.5248278 -186.4064545 139.04201071 -186.41144943 136.55920982 C-186.41741703 133.16764057 -186.40486895 129.7766211 -186.38768005 126.38510132 C-186.39669512 124.91707142 -186.39669512 124.91707142 -186.40589231 123.41938436 C-186.32202934 114.30367761 -184.39902684 106.90945302 -178 100.23046875 C-171.7947087 94.86143741 -165.3004865 93.77679636 -157.22265625 94.05078125 C-150.86921881 94.93641192 -145.39502181 97.59251302 -141.0625 102.375 C-136.82750547 108.79165837 -134.87154574 114.90908461 -134.87974548 122.54304504 C-134.87837082 123.53437439 -134.87699615 124.52570374 -134.87557983 125.54707336 C-134.88097275 127.16116341 -134.88097275 127.16116341 -134.88647461 128.80786133 C-134.88632858 129.94975922 -134.88618256 131.0916571 -134.8860321 132.26815796 C-134.88672832 136.03946843 -134.89450715 139.81072941 -134.90234375 143.58203125 C-134.90420896 146.19805372 -134.90563238 148.81407654 -134.90663147 151.43009949 C-134.90973644 157.61002778 -134.91793859 163.78993833 -134.92798096 169.96985883 C-134.939168 177.00732329 -134.94465907 184.04478862 -134.94967639 191.08225977 C-134.9601219 205.55485029 -134.97845701 220.02742162 -135 234.5 C-127.74 234.5 -120.48 234.5 -113 234.5 C-113.00523682 231.7976416 -113.01047363 229.0952832 -113.01586914 226.31103516 C-113.18030322 135.4547122 -113.18030322 135.4547122 -112.73654175 94.48553467 C-112.70263321 91.34496844 -112.67528722 88.20445731 -112.65383911 85.06378174 C-112.62829296 81.40621773 -112.58838759 77.74909644 -112.53687668 74.09180832 C-112.51280142 72.16478386 -112.5022522 70.23760468 -112.49234009 68.31045532 C-112.30586452 57.42398339 -110.75685533 49.29357889 -103.03515625 41.34765625 C-97.72084017 36.52295086 -92.02651418 35.35490974 -85 35.5 C-77.57318111 36.55456341 -71.68910024 39.59173369 -67 45.5 C-60.36555929 57.36607679 -60.85468432 69.65867687 -60.88647461 82.85180664 C-60.88675705 84.49843341 -60.88659763 86.14506031 -60.8860321 87.79168701 C-60.88574637 92.23937047 -60.89160688 96.68702671 -60.89860606 101.13470387 C-60.9048769 105.7911714 -60.90544634 110.44763962 -60.90663147 115.10411072 C-60.90973381 123.91176805 -60.91793237 132.7194129 -60.92798096 141.52706474 C-60.93917622 151.55851982 -60.94466114 161.58997551 -60.94967639 171.62143528 C-60.96011593 192.24763067 -60.97789659 212.8738141 -61 233.5 C-53.74 233.5 -46.48 233.5 -39 233.5 C-39.00444122 230.94586365 -39.00888245 228.39172729 -39.01345825 225.76019287 C-39.05435531 201.68831999 -39.08410448 177.6164517 -39.10362434 153.54455185 C-39.11392687 141.16901018 -39.12796765 128.79349403 -39.15087891 116.41796875 C-39.1708441 105.62859589 -39.18372388 94.83924152 -39.18817699 84.0498507 C-39.19077906 78.3395841 -39.19687377 72.6293704 -39.21146011 66.91912079 C-39.22509346 61.53805744 -39.22921104 56.15706851 -39.22621536 50.77598953 C-39.22676296 48.80725576 -39.23070596 46.83851934 -39.23841095 44.86980057 C-39.35240314 14.22529053 -39.35240314 14.22529053 -31.13671875 5.52734375 C-22.59229088 -2.30907127 -11.00160734 -4.28683321 0 0 Z " fill="#000000" transform="translate(235,1.5)"/>
</svg>
